<svg id="visual" viewBox="0 0 960 540" width="960" height="540" xmlns="http://www.w3.org/2000/svg" xmlns:xlink="http://www.w3.org/1999/xlink" version="1.1"><path d="M0 131L14.5 146.2C29 161.3 58 191.7 87.2 188C116.3 184.3 145.7 146.7 174.8 129.7C204 112.7 233 116.3 262 131.7C291 147 320 174 349 175.8C378 177.7 407 154.3 436.2 138.2C465.3 122 494.7 113 523.8 121C553 129 582 154 611 151.2C640 148.3 669 117.7 698 119.5C727 121.3 756 155.7 785.2 158.5C814.3 161.3 843.7 132.7 872.8 121C902 109.3 931 114.7 945.5 117.3L960 120L960 0L945.5 0C931 0 902 0 872.8 0C843.7 0 814.3 0 785.2 0C756 0 727 0 698 0C669 0 640 0 611 0C582 0 553 0 523.8 0C494.7 0 465.3 0 436.2 0C407 0 378 0 349 0C320 0 291 0 262 0C233 0 204 0 174.8 0C145.7 0 116.3 0 87.2 0C58 0 29 0 14.5 0L0 0Z" fill="#86ffff"></path><path d="M0 228L14.5 238.8C29 249.7 58 271.3 87.2 283C116.3 294.7 145.7 296.3 174.8 290.8C204 285.3 233 272.7 262 270.8C291 269 320 278 349 285.2C378 292.3 407 297.7 436.2 291.3C465.3 285 494.7 267 523.8 263.5C553 260 582 271 611 269.3C640 267.7 669 253.3 698 249.7C727 246 756 253 785.2 256.5C814.3 260 843.7 260 872.8 260C902 260 931 260 945.5 260L960 260L960 118L945.5 115.3C931 112.7 902 107.3 872.8 119C843.7 130.7 814.3 159.3 785.2 156.5C756 153.7 727 119.3 698 117.5C669 115.7 640 146.3 611 149.2C582 152 553 127 523.8 119C494.7 111 465.3 120 436.2 136.2C407 152.3 378 175.7 349 173.8C320 172 291 145 262 129.7C233 114.3 204 110.7 174.8 127.7C145.7 144.7 116.3 182.3 87.2 186C58 189.7 29 159.3 14.5 144.2L0 129Z" fill="#6effff"></path><path d="M0 347L14.5 354.2C29 361.3 58 375.7 87.2 380.2C116.3 384.7 145.7 379.3 174.8 373C204 366.7 233 359.3 262 353.8C291 348.3 320 344.7 349 344.7C378 344.7 407 348.3 436.2 351C465.3 353.7 494.7 355.3 523.8 360.7C553 366 582 375 611 367C640 359 669 334 698 321.5C727 309 756 309 785.2 315.3C814.3 321.7 843.7 334.3 872.8 335.2C902 336 931 325 945.5 319.5L960 314L960 258L945.5 258C931 258 902 258 872.8 258C843.7 258 814.3 258 785.2 254.5C756 251 727 244 698 247.7C669 251.3 640 265.7 611 267.3C582 269 553 258 523.8 261.5C494.7 265 465.3 283 436.2 289.3C407 295.7 378 290.3 349 283.2C320 276 291 267 262 268.8C233 270.7 204 283.3 174.8 288.8C145.7 294.3 116.3 292.7 87.2 281C58 269.3 29 247.7 14.5 236.8L0 226Z" fill="#4effff"></path><path d="M0 395L14.5 399.5C29 404 58 413 87.2 417.5C116.3 422 145.7 422 174.8 418.5C204 415 233 408 262 408C291 408 320 415 349 415C378 415 407 408 436.2 404.5C465.3 401 494.7 401 523.8 407.2C553 413.3 582 425.7 611 425.7C640 425.7 669 413.3 698 405.3C727 397.3 756 393.7 785.2 397.2C814.3 400.7 843.7 411.3 872.8 414.8C902 418.3 931 414.7 945.5 412.8L960 411L960 312L945.5 317.5C931 323 902 334 872.8 333.2C843.7 332.3 814.3 319.7 785.2 313.3C756 307 727 307 698 319.5C669 332 640 357 611 365C582 373 553 364 523.8 358.7C494.7 353.3 465.3 351.7 436.2 349C407 346.3 378 342.7 349 342.7C320 342.7 291 346.3 262 351.8C233 357.3 204 364.7 174.8 371C145.7 377.3 116.3 382.7 87.2 378.2C58 373.7 29 359.3 14.5 352.2L0 345Z" fill="#00ffff"></path><path d="M0 422L14.5 432.8C29 443.7 58 465.3 87.2 476.2C116.3 487 145.7 487 174.8 484.3C204 481.7 233 476.3 262 470C291 463.7 320 456.3 349 450.8C378 445.3 407 441.7 436.2 446.2C465.3 450.7 494.7 463.3 523.8 469.7C553 476 582 476 611 472.5C640 469 669 462 698 459.3C727 456.7 756 458.3 785.2 459.2C814.3 460 843.7 460 872.8 456.3C902 452.7 931 445.3 945.5 441.7L960 438L960 409L945.5 410.8C931 412.7 902 416.3 872.8 412.8C843.7 409.3 814.3 398.7 785.2 395.2C756 391.7 727 395.3 698 403.3C669 411.3 640 423.7 611 423.7C582 423.7 553 411.3 523.8 405.2C494.7 399 465.3 399 436.2 402.5C407 406 378 413 349 413C320 413 291 406 262 406C233 406 204 413 174.8 416.5C145.7 420 116.3 420 87.2 415.5C58 411 29 402 14.5 397.5L0 393Z" fill="#00e8e8"></path><path d="M0 487L14.5 490.7C29 494.3 58 501.7 87.2 505.3C116.3 509 145.7 509 174.8 506.2C204 503.3 233 497.7 262 497.7C291 497.7 320 503.3 349 504.3C378 505.3 407 501.7 436.2 499.8C465.3 498 494.7 498 523.8 500.7C553 503.3 582 508.7 611 506.8C640 505 669 496 698 492.3C727 488.7 756 490.3 785.2 493C814.3 495.7 843.7 499.3 872.8 498.5C902 497.7 931 492.3 945.5 489.7L960 487L960 436L945.5 439.7C931 443.3 902 450.7 872.8 454.3C843.7 458 814.3 458 785.2 457.2C756 456.3 727 454.7 698 457.3C669 460 640 467 611 470.5C582 474 553 474 523.8 467.7C494.7 461.3 465.3 448.7 436.2 444.2C407 439.7 378 443.3 349 448.8C320 454.3 291 461.7 262 468C233 474.3 204 479.7 174.8 482.3C145.7 485 116.3 485 87.2 474.2C58 463.3 29 441.7 14.5 430.8L0 420Z" fill="#00d1d1"></path><path d="M0 541L14.5 541C29 541 58 541 87.2 541C116.3 541 145.7 541 174.8 541C204 541 233 541 262 541C291 541 320 541 349 541C378 541 407 541 436.2 541C465.3 541 494.7 541 523.8 541C553 541 582 541 611 541C640 541 669 541 698 541C727 541 756 541 785.2 541C814.3 541 843.7 541 872.8 541C902 541 931 541 945.5 541L960 541L960 485L945.5 487.7C931 490.3 902 495.7 872.8 496.5C843.7 497.3 814.3 493.7 785.2 491C756 488.3 727 486.7 698 490.3C669 494 640 503 611 504.8C582 506.7 553 501.3 523.8 498.7C494.7 496 465.3 496 436.2 497.8C407 499.7 378 503.3 349 502.3C320 501.3 291 495.7 262 495.7C233 495.7 204 501.3 174.8 504.2C145.7 507 116.3 507 87.2 503.3C58 499.7 29 492.3 14.5 488.7L0 485Z" fill="#00bbbb"></path></svg>